<svg width="1170" height="278" viewBox="0 0 1170 278" fill="none" xmlns="http://www.w3.org/2000/svg">
<path d="M1135.64 24.3237C1154.22 24.4447 1170 39.0611 1170 57.6389V245.918C1170 263.592 1155.67 277.918 1138 277.918H32C14.3269 277.918 0 263.592 0 245.918V125.402C0 105.605 17.8943 90.7028 37.6885 90.3325C44.7445 90.2006 51.7941 89.7065 58.7808 88.8492C111.633 82.2134 157.307 59.653 203.465 40.1352C249.622 20.6175 301.758 3.17003 354.915 8.42358C444.012 17.2264 510.884 87.1126 600.36 80.5647C662.138 76.0374 705.886 36.422 761.411 16.5909C825.282 -6.2272 901.234 -1.59155 971.521 7.51285C1025.88 14.5503 1080.85 23.9669 1135.64 24.3237Z" fill="white" fill-opacity="0.05"/>
</svg>
