<svg width="1170" height="291" viewBox="0 0 1170 291" fill="none" xmlns="http://www.w3.org/2000/svg">
<path d="M1088.52 8.65314C1115.02 -10.9689 1170 7.82645 1170 40.7996V259C1170 276.673 1155.67 291 1138 291H32C14.3269 291 0 276.673 0 259V115.733C0 94.8875 25.2146 82.5731 43.6437 92.3148C96.7381 120.3 162.964 131.52 225.476 123.101C290.986 114.293 349.22 85.5036 408.168 60.771C467.115 36.0383 532.308 14.4089 598.096 21.7051C650.807 27.5527 697.54 51.2986 747.804 65.4125C831.494 88.9092 926.56 84.58 1006.46 53.6343C1036.39 42.0438 1064.05 26.7696 1088.52 8.65314Z" fill="#9DCFEA" fill-opacity="0.07"/>
</svg>
