<svg width="1170" height="160" viewBox="0 0 1170 160" fill="none" xmlns="http://www.w3.org/2000/svg">
<path d="M1146.37 51.376C1159.45 52.0093 1170 62.6122 1170 75.7093V128C1170 145.673 1155.67 160 1138 160H32C14.3269 160 0 145.673 0 128V69.8725C0 56.3525 8.46409 44.1118 21.6333 41.0518C57.6841 32.6751 101.376 31.5457 140.907 34.8488C203.023 40.0414 262.479 53.6514 325.204 55.6839C470.242 60.3885 600.965 3.2406 746.186 0.637597C814.972 -0.594816 882.291 10.5615 947.392 22.6672C1012.49 34.773 1077.82 48.0732 1146.37 51.376Z" fill="white" fill-opacity="0.01"/>
</svg>
